# xmcd
#
# Track frame offsets: 
#        150
#        12375
#        30825
#        49962
#        67290
#        84652
#        99715
#        112410
#        130067
#        144665
#        157477
#
# Disc length: 2341 seconds
#
# Revision: 0
# Processed by: cddbd v1.4PL0 Copyright (c) Steve Scherf et al.
# Submitted via: ExactAudioCopy v0.90a11
#
DISCID=a609230b
DTITLE=Tom Roznowski - A Well Traveled Porch
DYEAR=1900
DGENRE=
TTITLE0=I'm Decided On You
TTITLE1=Old Hound Dog
TTITLE2=Perfect Woman
TTITLE3=Under The Gum Tree
TTITLE4=What She Told Me Not To Do
TTITLE5=Passion Flower
TTITLE6=Hot Grease At Midnight
TTITLE7=Stewed Cucumbers
TTITLE8=Whisper Baby
TTITLE9=My Old Man's Stuff
TTITLE10=Turtle Wings
EXTD=
EXTT0=
EXTT1=
EXTT2=
EXTT3=
EXTT4=
EXTT5=
EXTT6=
EXTT7=
EXTT8=
EXTT9=
EXTT10=
PLAYORDER=
